<mxfile host="app.diagrams.net" modified="2021-08-26T08:06:31.187Z" agent="5.0 (X11; Linux aarch64) AppleWebKit/537.36 (KHTML, like Gecko) Chrome/86.0.4240.75 Safari/537.36" etag="dIVhKLnEob9Pya1bp6hw" version="14.9.9" type="github">
  <diagram id="C5RBs43oDa-KdzZeNtuy" name="Page-1">
    <mxGraphModel dx="2062" dy="1082" grid="1" gridSize="10" guides="1" tooltips="1" connect="1" arrows="1" fold="1" page="1" pageScale="1" pageWidth="1169" pageHeight="827" math="0" shadow="0">
      <root>
        <mxCell id="WIyWlLk6GJQsqaUBKTNV-0" />
        <mxCell id="WIyWlLk6GJQsqaUBKTNV-1" parent="WIyWlLk6GJQsqaUBKTNV-0" />
        <mxCell id="sB9BEigtqDO6jK4cRqFz-11" value="" style="rounded=0;whiteSpace=wrap;html=1;" vertex="1" parent="WIyWlLk6GJQsqaUBKTNV-1">
          <mxGeometry x="370" y="40" width="430" height="60" as="geometry" />
        </mxCell>
        <mxCell id="sB9BEigtqDO6jK4cRqFz-13" value="" style="rounded=0;whiteSpace=wrap;html=1;" vertex="1" parent="WIyWlLk6GJQsqaUBKTNV-1">
          <mxGeometry x="370" y="120" width="100" height="60" as="geometry" />
        </mxCell>
        <mxCell id="sB9BEigtqDO6jK4cRqFz-14" value="" style="rounded=0;whiteSpace=wrap;html=1;" vertex="1" parent="WIyWlLk6GJQsqaUBKTNV-1">
          <mxGeometry x="590" y="120" width="100" height="60" as="geometry" />
        </mxCell>
        <mxCell id="sB9BEigtqDO6jK4cRqFz-15" value="" style="rounded=0;whiteSpace=wrap;html=1;" vertex="1" parent="WIyWlLk6GJQsqaUBKTNV-1">
          <mxGeometry x="700" y="120" width="100" height="60" as="geometry" />
        </mxCell>
        <mxCell id="sB9BEigtqDO6jK4cRqFz-16" value="" style="rounded=0;whiteSpace=wrap;html=1;" vertex="1" parent="WIyWlLk6GJQsqaUBKTNV-1">
          <mxGeometry x="480" y="120" width="100" height="60" as="geometry" />
        </mxCell>
        <mxCell id="sB9BEigtqDO6jK4cRqFz-18" value="Video" style="text;html=1;strokeColor=none;fillColor=none;align=center;verticalAlign=middle;whiteSpace=wrap;rounded=0;fontSize=18;" vertex="1" parent="WIyWlLk6GJQsqaUBKTNV-1">
          <mxGeometry x="540" y="60" width="90" height="20" as="geometry" />
        </mxCell>
        <mxCell id="sB9BEigtqDO6jK4cRqFz-19" value="Scene" style="text;html=1;strokeColor=none;fillColor=none;align=center;verticalAlign=middle;whiteSpace=wrap;rounded=0;fontSize=18;" vertex="1" parent="WIyWlLk6GJQsqaUBKTNV-1">
          <mxGeometry x="400" y="140" width="40" height="20" as="geometry" />
        </mxCell>
        <mxCell id="sB9BEigtqDO6jK4cRqFz-22" value="Scene" style="text;html=1;strokeColor=none;fillColor=none;align=center;verticalAlign=middle;whiteSpace=wrap;rounded=0;fontSize=18;" vertex="1" parent="WIyWlLk6GJQsqaUBKTNV-1">
          <mxGeometry x="512.5" y="140" width="35" height="20" as="geometry" />
        </mxCell>
        <mxCell id="sB9BEigtqDO6jK4cRqFz-23" value="Scene" style="text;html=1;strokeColor=none;fillColor=none;align=center;verticalAlign=middle;whiteSpace=wrap;rounded=0;fontSize=18;" vertex="1" parent="WIyWlLk6GJQsqaUBKTNV-1">
          <mxGeometry x="620" y="140" width="40" height="20" as="geometry" />
        </mxCell>
        <mxCell id="sB9BEigtqDO6jK4cRqFz-24" value="Scene" style="text;html=1;strokeColor=none;fillColor=none;align=center;verticalAlign=middle;whiteSpace=wrap;rounded=0;fontSize=18;" vertex="1" parent="WIyWlLk6GJQsqaUBKTNV-1">
          <mxGeometry x="730" y="140" width="40" height="20" as="geometry" />
        </mxCell>
        <mxCell id="sB9BEigtqDO6jK4cRqFz-31" value="" style="whiteSpace=wrap;html=1;aspect=fixed;fontSize=18;" vertex="1" parent="WIyWlLk6GJQsqaUBKTNV-1">
          <mxGeometry x="370" y="190" width="40" height="40" as="geometry" />
        </mxCell>
        <mxCell id="sB9BEigtqDO6jK4cRqFz-32" value="" style="whiteSpace=wrap;html=1;aspect=fixed;fontSize=18;" vertex="1" parent="WIyWlLk6GJQsqaUBKTNV-1">
          <mxGeometry x="430" y="190" width="40" height="40" as="geometry" />
        </mxCell>
        <mxCell id="sB9BEigtqDO6jK4cRqFz-34" value="" style="whiteSpace=wrap;html=1;aspect=fixed;fontSize=18;" vertex="1" parent="WIyWlLk6GJQsqaUBKTNV-1">
          <mxGeometry x="480" y="190" width="40" height="40" as="geometry" />
        </mxCell>
        <mxCell id="sB9BEigtqDO6jK4cRqFz-35" value="" style="whiteSpace=wrap;html=1;aspect=fixed;fontSize=18;" vertex="1" parent="WIyWlLk6GJQsqaUBKTNV-1">
          <mxGeometry x="540" y="190" width="40" height="40" as="geometry" />
        </mxCell>
        <mxCell id="sB9BEigtqDO6jK4cRqFz-36" value="" style="whiteSpace=wrap;html=1;aspect=fixed;fontSize=18;" vertex="1" parent="WIyWlLk6GJQsqaUBKTNV-1">
          <mxGeometry x="590" y="190" width="40" height="40" as="geometry" />
        </mxCell>
        <mxCell id="sB9BEigtqDO6jK4cRqFz-37" value="" style="whiteSpace=wrap;html=1;aspect=fixed;fontSize=18;" vertex="1" parent="WIyWlLk6GJQsqaUBKTNV-1">
          <mxGeometry x="650" y="190" width="40" height="40" as="geometry" />
        </mxCell>
        <mxCell id="sB9BEigtqDO6jK4cRqFz-38" value="" style="whiteSpace=wrap;html=1;aspect=fixed;fontSize=18;" vertex="1" parent="WIyWlLk6GJQsqaUBKTNV-1">
          <mxGeometry x="700" y="190" width="40" height="40" as="geometry" />
        </mxCell>
        <mxCell id="sB9BEigtqDO6jK4cRqFz-39" value="" style="whiteSpace=wrap;html=1;aspect=fixed;fontSize=18;" vertex="1" parent="WIyWlLk6GJQsqaUBKTNV-1">
          <mxGeometry x="760" y="190" width="40" height="40" as="geometry" />
        </mxCell>
        <mxCell id="sB9BEigtqDO6jK4cRqFz-40" value="Shot" style="text;html=1;strokeColor=none;fillColor=none;align=center;verticalAlign=middle;whiteSpace=wrap;rounded=0;fontSize=18;" vertex="1" parent="WIyWlLk6GJQsqaUBKTNV-1">
          <mxGeometry x="760" y="200" width="40" height="20" as="geometry" />
        </mxCell>
        <mxCell id="sB9BEigtqDO6jK4cRqFz-41" value="Shot" style="text;html=1;strokeColor=none;fillColor=none;align=center;verticalAlign=middle;whiteSpace=wrap;rounded=0;fontSize=18;" vertex="1" parent="WIyWlLk6GJQsqaUBKTNV-1">
          <mxGeometry x="700" y="200" width="40" height="20" as="geometry" />
        </mxCell>
        <mxCell id="sB9BEigtqDO6jK4cRqFz-42" value="Shot" style="text;html=1;strokeColor=none;fillColor=none;align=center;verticalAlign=middle;whiteSpace=wrap;rounded=0;fontSize=18;" vertex="1" parent="WIyWlLk6GJQsqaUBKTNV-1">
          <mxGeometry x="650" y="200" width="40" height="20" as="geometry" />
        </mxCell>
        <mxCell id="sB9BEigtqDO6jK4cRqFz-43" value="Shot" style="text;html=1;strokeColor=none;fillColor=none;align=center;verticalAlign=middle;whiteSpace=wrap;rounded=0;fontSize=18;" vertex="1" parent="WIyWlLk6GJQsqaUBKTNV-1">
          <mxGeometry x="590" y="200" width="40" height="20" as="geometry" />
        </mxCell>
        <mxCell id="sB9BEigtqDO6jK4cRqFz-44" value="Shot" style="text;html=1;strokeColor=none;fillColor=none;align=center;verticalAlign=middle;whiteSpace=wrap;rounded=0;fontSize=18;" vertex="1" parent="WIyWlLk6GJQsqaUBKTNV-1">
          <mxGeometry x="540" y="200" width="40" height="20" as="geometry" />
        </mxCell>
        <mxCell id="sB9BEigtqDO6jK4cRqFz-45" value="Shot" style="text;html=1;strokeColor=none;fillColor=none;align=center;verticalAlign=middle;whiteSpace=wrap;rounded=0;fontSize=18;" vertex="1" parent="WIyWlLk6GJQsqaUBKTNV-1">
          <mxGeometry x="480" y="200" width="40" height="20" as="geometry" />
        </mxCell>
        <mxCell id="sB9BEigtqDO6jK4cRqFz-46" value="Shot" style="text;html=1;strokeColor=none;fillColor=none;align=center;verticalAlign=middle;whiteSpace=wrap;rounded=0;fontSize=18;" vertex="1" parent="WIyWlLk6GJQsqaUBKTNV-1">
          <mxGeometry x="430" y="200" width="40" height="20" as="geometry" />
        </mxCell>
        <mxCell id="sB9BEigtqDO6jK4cRqFz-47" value="Shot" style="text;html=1;strokeColor=none;fillColor=none;align=center;verticalAlign=middle;whiteSpace=wrap;rounded=0;fontSize=18;" vertex="1" parent="WIyWlLk6GJQsqaUBKTNV-1">
          <mxGeometry x="370" y="200" width="40" height="20" as="geometry" />
        </mxCell>
        <mxCell id="sB9BEigtqDO6jK4cRqFz-51" value="" style="shape=parallelogram;perimeter=parallelogramPerimeter;whiteSpace=wrap;html=1;fixedSize=1;fontSize=18;" vertex="1" parent="WIyWlLk6GJQsqaUBKTNV-1">
          <mxGeometry x="370" y="240" width="40" height="60" as="geometry" />
        </mxCell>
        <mxCell id="sB9BEigtqDO6jK4cRqFz-52" value="" style="shape=parallelogram;perimeter=parallelogramPerimeter;whiteSpace=wrap;html=1;fixedSize=1;fontSize=18;" vertex="1" parent="WIyWlLk6GJQsqaUBKTNV-1">
          <mxGeometry x="400" y="240" width="40" height="60" as="geometry" />
        </mxCell>
        <mxCell id="sB9BEigtqDO6jK4cRqFz-53" value="" style="shape=parallelogram;perimeter=parallelogramPerimeter;whiteSpace=wrap;html=1;fixedSize=1;fontSize=18;" vertex="1" parent="WIyWlLk6GJQsqaUBKTNV-1">
          <mxGeometry x="430" y="240" width="40" height="60" as="geometry" />
        </mxCell>
        <mxCell id="sB9BEigtqDO6jK4cRqFz-54" value="" style="shape=parallelogram;perimeter=parallelogramPerimeter;whiteSpace=wrap;html=1;fixedSize=1;fontSize=18;" vertex="1" parent="WIyWlLk6GJQsqaUBKTNV-1">
          <mxGeometry x="460" y="240" width="40" height="60" as="geometry" />
        </mxCell>
        <mxCell id="sB9BEigtqDO6jK4cRqFz-55" value="" style="shape=parallelogram;perimeter=parallelogramPerimeter;whiteSpace=wrap;html=1;fixedSize=1;fontSize=18;" vertex="1" parent="WIyWlLk6GJQsqaUBKTNV-1">
          <mxGeometry x="490" y="240" width="40" height="60" as="geometry" />
        </mxCell>
        <mxCell id="sB9BEigtqDO6jK4cRqFz-56" value="" style="shape=parallelogram;perimeter=parallelogramPerimeter;whiteSpace=wrap;html=1;fixedSize=1;fontSize=18;" vertex="1" parent="WIyWlLk6GJQsqaUBKTNV-1">
          <mxGeometry x="520" y="240" width="40" height="60" as="geometry" />
        </mxCell>
        <mxCell id="sB9BEigtqDO6jK4cRqFz-57" value="" style="shape=parallelogram;perimeter=parallelogramPerimeter;whiteSpace=wrap;html=1;fixedSize=1;fontSize=18;" vertex="1" parent="WIyWlLk6GJQsqaUBKTNV-1">
          <mxGeometry x="547.5" y="240" width="40" height="60" as="geometry" />
        </mxCell>
        <mxCell id="sB9BEigtqDO6jK4cRqFz-58" value="" style="shape=parallelogram;perimeter=parallelogramPerimeter;whiteSpace=wrap;html=1;fixedSize=1;fontSize=18;" vertex="1" parent="WIyWlLk6GJQsqaUBKTNV-1">
          <mxGeometry x="580" y="240" width="40" height="60" as="geometry" />
        </mxCell>
        <mxCell id="sB9BEigtqDO6jK4cRqFz-59" value="" style="shape=parallelogram;perimeter=parallelogramPerimeter;whiteSpace=wrap;html=1;fixedSize=1;fontSize=18;" vertex="1" parent="WIyWlLk6GJQsqaUBKTNV-1">
          <mxGeometry x="610" y="240" width="40" height="60" as="geometry" />
        </mxCell>
        <mxCell id="sB9BEigtqDO6jK4cRqFz-60" value="" style="shape=parallelogram;perimeter=parallelogramPerimeter;whiteSpace=wrap;html=1;fixedSize=1;fontSize=18;" vertex="1" parent="WIyWlLk6GJQsqaUBKTNV-1">
          <mxGeometry x="640" y="240" width="40" height="60" as="geometry" />
        </mxCell>
        <mxCell id="sB9BEigtqDO6jK4cRqFz-61" value="" style="shape=parallelogram;perimeter=parallelogramPerimeter;whiteSpace=wrap;html=1;fixedSize=1;fontSize=18;" vertex="1" parent="WIyWlLk6GJQsqaUBKTNV-1">
          <mxGeometry x="670" y="240" width="40" height="60" as="geometry" />
        </mxCell>
        <mxCell id="sB9BEigtqDO6jK4cRqFz-62" value="" style="shape=parallelogram;perimeter=parallelogramPerimeter;whiteSpace=wrap;html=1;fixedSize=1;fontSize=18;" vertex="1" parent="WIyWlLk6GJQsqaUBKTNV-1">
          <mxGeometry x="700" y="240" width="40" height="60" as="geometry" />
        </mxCell>
        <mxCell id="sB9BEigtqDO6jK4cRqFz-63" value="" style="shape=parallelogram;perimeter=parallelogramPerimeter;whiteSpace=wrap;html=1;fixedSize=1;fontSize=18;" vertex="1" parent="WIyWlLk6GJQsqaUBKTNV-1">
          <mxGeometry x="730" y="240" width="40" height="60" as="geometry" />
        </mxCell>
        <mxCell id="sB9BEigtqDO6jK4cRqFz-64" value="" style="shape=parallelogram;perimeter=parallelogramPerimeter;whiteSpace=wrap;html=1;fixedSize=1;fontSize=18;" vertex="1" parent="WIyWlLk6GJQsqaUBKTNV-1">
          <mxGeometry x="760" y="240" width="40" height="60" as="geometry" />
        </mxCell>
        <mxCell id="sB9BEigtqDO6jK4cRqFz-69" value="Frames" style="text;html=1;strokeColor=none;fillColor=none;align=center;verticalAlign=middle;whiteSpace=wrap;rounded=0;fontSize=18;" vertex="1" parent="WIyWlLk6GJQsqaUBKTNV-1">
          <mxGeometry x="300" y="260" width="40" height="20" as="geometry" />
        </mxCell>
        <mxCell id="sB9BEigtqDO6jK4cRqFz-70" value="&lt;h1&gt;Video shot boundary detection&lt;br&gt;&lt;/h1&gt;" style="text;html=1;strokeColor=none;fillColor=none;spacing=5;spacingTop=-20;whiteSpace=wrap;overflow=hidden;rounded=0;fontSize=18;verticalAlign=top;align=center;" vertex="1" parent="WIyWlLk6GJQsqaUBKTNV-1">
          <mxGeometry x="30" y="40" width="250" height="150" as="geometry" />
        </mxCell>
        <mxCell id="sB9BEigtqDO6jK4cRqFz-72" value="" style="rounded=1;whiteSpace=wrap;html=1;fontSize=18;align=center;verticalAlign=top;" vertex="1" parent="WIyWlLk6GJQsqaUBKTNV-1">
          <mxGeometry x="440" y="414" width="290" height="60" as="geometry" />
        </mxCell>
        <mxCell id="sB9BEigtqDO6jK4cRqFz-73" value="" style="endArrow=none;dashed=1;html=1;fontSize=18;" edge="1" parent="WIyWlLk6GJQsqaUBKTNV-1">
          <mxGeometry width="50" height="50" relative="1" as="geometry">
            <mxPoint y="360" as="sourcePoint" />
            <mxPoint x="1150" y="360" as="targetPoint" />
          </mxGeometry>
        </mxCell>
        <mxCell id="sB9BEigtqDO6jK4cRqFz-74" value="&lt;h1&gt;Flowchart&lt;/h1&gt;" style="text;html=1;strokeColor=none;fillColor=none;spacing=5;spacingTop=-20;whiteSpace=wrap;overflow=hidden;rounded=0;fontSize=18;align=center;verticalAlign=top;" vertex="1" parent="WIyWlLk6GJQsqaUBKTNV-1">
          <mxGeometry x="40" y="400" width="190" height="70" as="geometry" />
        </mxCell>
        <mxCell id="sB9BEigtqDO6jK4cRqFz-75" value="Source video" style="text;html=1;strokeColor=none;fillColor=none;align=center;verticalAlign=middle;whiteSpace=wrap;rounded=0;fontSize=18;" vertex="1" parent="WIyWlLk6GJQsqaUBKTNV-1">
          <mxGeometry x="500" y="434" width="170" height="20" as="geometry" />
        </mxCell>
      </root>
    </mxGraphModel>
  </diagram>
</mxfile>
